#!OML:ASF X:\für Bonn\!DataBase\2005_08_11_Bastian_Final\c3d\Bastian.ASF
:FULLY-SPECIFIED
:DEGREES
372
root 0.570295 1.42964 19.964 -627.896 0.565541 -178.934
lowerback 37.8297 3.98083 7.45276
upperback 27.4386 -4.96988 1.96754
thorax 12.6204 -7.87205 -1.98804
lowerneck 9.37018 -2.84043 -13.9846
upperneck 3.42096 -4.81563 5.43486
head 0.00484869 -2.48153 3.98532
rclavicle -1.43622e-014 4.96962e-015
rhumerus -36.652 27.5146 -70.2179
rradius 50.8577
rwrist 1.17818
rhand -33.3571 4.05944
rfingers 7.12502
rthumb -6.55891 -25.819
lclavicle -1.43622e-014 4.96962e-015
lhumerus -47.5566 -4.77362 78.0433
lradius 59.3596
lwrist 11.787
lhand -38.7761 -9.60387
lfingers 7.12502
lthumb -11.7878 20.0444
rfemur -19.892 2.88545 24.2823
rtibia 40.8216
rfoot 6.94783 -9.86522
rtoes -10.7066
lfemur -20.9837 7.07027 -16.9426
ltibia 44.3408
lfoot 12.9429 7.97444
ltoes -7.2269
373
root 0.573858 1.42473 19.9678 -628.146 0.529401 -179.071
lowerback 37.462 3.9068 7.43351
upperback 27.4184 -4.98306 1.96006
thorax 12.7091 -7.82838 -2.00207
lowerneck 9.64338 -2.80295 -14.0988
upperneck 3.57692 -4.78899 5.30656
head 0.00793194 -2.46407 3.96732
rclavicle -1.98785e-015 8.74653e-015
rhumerus -35.8387 26.823 -69.8587
rradius 50.0389
rwrist 1.10149
rhand -33.7956 4.62035
rfingers 7.12502
rthumb -6.98227 -25.2445
lclavicle -1.98785e-015 8.74653e-015
lhumerus -47.5358 -4.75198 78.0363
lradius 59.2706
lwrist 11.6297
lhand -38.5784 -9.68684
lfingers 7.12502
lthumb -11.5971 19.9723
rfemur -19.1821 3.36194 24.3288
rtibia 40.0825
rfoot 6.85955 -10.0402
rtoes -10.9498
lfemur -20.5422 7.07975 -16.9248
ltibia 44.0222
lfoot 12.9289 8.07482
ltoes -7.11171
374
root 0.577593 1.41962 19.9715 -628.384 0.492427 -179.206
lowerback 37.0695 3.83573 7.41007
upperback 27.4002 -4.99093 1.9444
thorax 12.809 -7.77855 -2.02611
lowerneck 9.92041 -2.77529 -14.1869
upperneck 3.72999 -4.77346 5.1845
head 0.0102532 -2.4518 3.94735
rclavicle 1.80397e-014 7.95139e-016
rhumerus -35.111 26.0744 -69.5707
rradius 49.2541
rwrist 1.04741
rhand -34.2924 5.34829
rfingers 7.12502
rthumb -7.46185 -24.5001
lclavicle 1.80397e-014 7.95139e-016
lhumerus -47.5144 -4.75711 77.9994
lradius 59.2114
lwrist 11.5779
lhand -38.3513 -9.83691
lfingers 7.12502
lthumb -11.3781 19.8344
rfemur -18.5307 3.77914 24.38
rtibia 39.4222
rfoot 6.72849 -10.1946
rtoes -10.8411
lfemur -20.1123 7.09515 -16.9077
ltibia 43.6983
lfoot 12.9261 8.19085
ltoes -7.10777
375
root 0.580911 1.41441 19.9743 -628.62 0.479232 -179.333
lowerback 36.6829 3.75378 7.42379
upperback 27.383 -5.00923 1.94176
thorax 12.913 -7.73241 -2.05371
lowerneck 10.1668 -2.74735 -14.2849
upperneck 3.88836 -4.75396 5.05352
head 0.0188511 -2.43721 3.92536
rclavicle 1.86361e-014 -9.14409e-015
rhumerus -34.4052 25.311 -69.2925
rradius 48.5193
rwrist 1.02716
rhand -34.7748 6.06208
rfingers 7.12502
rthumb -7.92745 -23.7693
lclavicle 1.86361e-014 -9.14409e-015
lhumerus -47.4603 -4.67891 77.9579
lradius 59.1375
lwrist 11.4767
lhand -38.0093 -9.96695
lfingers 7.12502
lthumb -11.0483 19.7223
rfemur -17.9197 4.18556 24.4555
rtibia 38.8267
rfoot 6.53391 -10.3675
rtoes -10.5112
lfemur -19.6864 7.10174 -16.8641
ltibia 43.3826
lfoot 12.8905 8.30475
ltoes -6.94937
376
root 0.584902 1.40957 19.977 -628.882 0.443993 -179.469
lowerback 36.3159 3.68575 7.41243
upperback 27.3718 -5.02228 1.94059
thorax 13.0195 -7.69154 -2.06815
lowerneck 10.4078 -2.72101 -14.3676
upperneck 4.05182 -4.7332 4.91145
head 0.0292936 -2.4213 3.89736
rclavicle -1.25234e-014 1.78906e-014
rhumerus -33.7907 24.55 -69.0362
rradius 47.8945
rwrist 1.09501
rhand -35.2166 6.7024
rfingers 7.12502
rthumb -8.35382 -23.1124
lclavicle -1.25234e-014 1.78906e-014
lhumerus -47.4209 -4.59567 77.9089
lradius 59.0811
lwrist 11.336
lhand -37.7085 -10.0458
lfingers 7.12502
lthumb -10.7581 19.6587
rfemur -17.3156 4.54559 24.5067
rtibia 38.291
rfoot 6.29222 -10.4873
rtoes -9.96602
lfemur -19.2308 7.13851 -16.8403
ltibia 43.0719
lfoot 12.8755 8.4298
ltoes -6.7154
377
root 0.588507 1.40435 19.9799 -629.13 0.431979 -179.603
lowerback 36.4057 -9.23939 -1.90603
upperback 27.3582 -1.01424 -4.24519
thorax 12.63 5.66368 -2.11993
lowerneck 10.6432 -2.68665 -14.4606
upperneck 4.19984 -4.70388 4.80363
head 0.0361652 -2.40175 3.88136
rclavicle 7.35503e-015 -2.8625e-014
rhumerus -33.2154 23.7695 -68.8414
rradius 47.3161
rwrist 1.35883
rhand -35.6528 7.20193
rfingers 7.12502
rthumb -8.77474 -22.5957
lclavicle 7.35503e-015 -2.8625e-014
lhumerus -47.4249 -4.49203 77.8351
lradius 59.0992
lwrist 11.2181
lhand -37.3547 -10.0922
lfingers 7.12502
lthumb -10.4168 19.6297
rfemur -16.7573 4.92515 24.5817
rtibia 37.8088
rfoot 6.00144 -10.6114
rtoes -9.18543
lfemur -18.802 7.18198 -16.7922
ltibia 42.7691
lfoot 12.8598 8.52094
ltoes -6.73033
378
root 0.592462 1.39911 19.9823 -629.391 0.395135 -179.731
lowerback 36.0336 -9.25435 -1.71211
upperback 27.355 -1.08947 -4.2042
thorax 12.7331 5.60576 -2.16114
lowerneck 10.8646 -2.66305 -14.5475
upperneck 4.36063 -4.68562 4.70643
head 0.0503016 -2.38785 3.86743
rclavicle 8.84592e-015 9.14409e-015
rhumerus -32.7047 22.9346 -68.631
rradius 46.8115
rwrist 1.79409
rhand -36.0116 7.53668
rfingers 7.12502
rthumb -9.12102 -22.2461
lclavicle 8.84592e-015 9.14409e-015
lhumerus -47.4023 -4.43423 77.7827
lradius 59.0718
lwrist 11.0441
lhand -37.0311 -10.1028
lfingers 7.12502
lthumb -10.1047 19.6346
rfemur -16.2088 5.26402 24.6357
rtibia 37.3759
rfoot 5.58243 -10.6789
rtoes -8.36425
lfemur -18.3554 7.2194 -16.7669
ltibia 42.4668
lfoot 12.8178 8.63291
ltoes -6.80261
379
root 0.596766 1.3928 19.9852 -629.64 0.383524 -179.867
lowerback 35.6641 -9.26476 -1.51884
upperback 27.3374 -1.17269 -4.15348
thorax 12.8183 5.53584 -2.19327
lowerneck 11.0995 -2.63883 -14.6272
upperneck 4.52066 -4.66477 4.5578
head 0.0610732 -2.37075 3.83664
rclavicle -2.48481e-015 -2.50469e-014
rhumerus -32.2783 22.2045 -68.4295
rradius 46.4529
rwrist 2.39097
rhand -36.2438 7.63666
rfingers 7.12502
rthumb -9.34505 -22.1362
lclavicle -2.48481e-015 -2.50469e-014
lhumerus -47.4456 -4.32433 77.7321
lradius 59.1324
lwrist 10.8161
lhand -36.7254 -10.0276
lfingers 7.12502
lthumb -9.8097 19.7239
rfemur -15.7096 5.61868 24.7203
rtibia 36.9816
rfoot 5.09336 -10.7803
rtoes -7.92466
lfemur -17.9217 7.26542 -16.7134
ltibia 42.1672
lfoot 12.7729 8.71907
ltoes -7.03727
380
root 0.600378 1.38758 19.9884 -629.901 0.347374 -180.001
lowerback 35.305 -9.27151 -1.32633
upperback 27.3117 -1.25208 -4.11312
thorax 12.8912 5.46951 -2.2389
lowerneck 11.3198 -2.61613 -14.6837
upperneck 4.71467 -4.63932 4.43296
head 0.0838584 -2.35172 3.80898
rclavicle -7.35503e-015 8.34896e-015
rhumerus -31.9284 21.3783 -68.2214
rradius 46.1857
rwrist 3.22388
rhand -36.3763 7.70348
rfingers 7.12502
rthumb -9.4729 -22.0636
lclavicle -7.35503e-015 8.34896e-015
lhumerus -47.4877 -4.26236 77.6793
lradius 59.1435
lwrist 10.5388
lhand -36.3925 -9.95306
lfingers 7.12502
lthumb -9.48856 19.8133
rfemur -15.2051 5.97117 24.7752
rtibia 36.6191
rfoot 4.48363 -10.8831
rtoes -7.49209
lfemur -17.4734 7.32041 -16.6819
ltibia 41.8662
lfoot 12.7007 8.84978
ltoes -7.04591
381
root 0.604031 1.38234 19.9926 -630.184 0.33711 -180.149
lowerback 34.985 -9.2763 -1.12362
upperback 27.2791 -1.32515 -4.08623
thorax 12.9418 5.41083 -2.3079
lowerneck 11.567 -2.59529 -14.6434
upperneck 4.86823 -4.61054 4.26874
head 0.0867702 -2.32835 3.75489
rclavicle 6.75868e-015 4.37326e-015
rhumerus -31.638 20.6118 -68.0329
rradius 46.0378
rwrist 4.1762
rhand -36.3802 7.57698
rfingers 7.12502
rthumb -9.47666 -22.1899
lclavicle 6.75868e-015 4.37326e-015
lhumerus -47.5821 -4.22594 77.6022
lradius 59.2304
lwrist 10.224
lhand -36.1702 -9.74362
lfingers 7.12502
lthumb -9.27405 20.0324
rfemur -14.6994 6.34561 24.8662
rtibia 36.2825
rfoot 3.83891 -10.9853
rtoes -7.40075
lfemur -16.999 7.35693 -16.6177
ltibia 41.5696
lfoot 12.6219 9.01059
ltoes -6.96138
382
root 0.60816 1.37698 19.9969 -630.466 0.351923 -180.274
lowerback 34.6488 -9.27813 -0.916936
upperback 27.2566 -1.39263 -4.02442
thorax 13.0137 5.35304 -2.34071
lowerneck 11.7881 -2.57963 -14.6354
upperneck 5.0311 -4.58716 4.10493
head 0.0981029 -2.30788 3.70541
rclavicle 9.14409e-015 -2.46493e-014
rhumerus -31.409 19.8064 -67.7841
rradius 45.9995
rwrist 5.23719
rhand -36.2304 7.5318
rfingers 7.12502
rthumb -9.3321 -22.2416
lclavicle 9.14409e-015 -2.46493e-014
lhumerus -47.6428 -4.15978 77.5566
lradius 59.2896
lwrist 9.8279
lhand -35.916 -9.54743
lfingers 7.12502
lthumb -9.02871 20.2393
rfemur -14.2028 6.69355 24.9837
rtibia 35.964
rfoot 3.15741 -11.0999
rtoes -7.11464
lfemur -16.5332 7.40606 -16.5233
ltibia 41.2757
lfoot 12.5687 9.12481
ltoes -7.15382
